<?xml version="1.0" standalone="no"?>
<!DOCTYPE svg PUBLIC "-//W3C//DTD SVG 20010904//EN"
 "http://www.w3.org/TR/2001/REC-SVG-20010904/DTD/svg10.dtd">
<svg version="1.0" xmlns="http://www.w3.org/2000/svg"
 width="2560.000000pt" height="2560.000000pt" viewBox="0 0 2560.000000 2560.000000"
 preserveAspectRatio="xMidYMid meet">
<metadata>
Created by potrace 1.16, written by Peter Selinger 2001-2019
</metadata>
<g transform="translate(0.000000,2560.000000) scale(0.100000,-0.100000)"
fill="#000000" stroke="none">
<path d="M3270 17855 l0 -1365 9530 0 9530 0 0 1365 0 1365 -9530 0 -9530 0 0
-1365z m6201 964 c248 -32 402 -111 577 -293 50 -53 92 -101 92 -107 0 -11
-92 -102 -128 -127 -23 -15 -25 -14 -49 19 -14 19 -65 72 -112 119 -69 69
-104 95 -181 133 -115 58 -187 71 -355 65 -100 -4 -135 -10 -207 -35 -188 -65
-341 -198 -423 -367 -60 -123 -76 -189 -82 -336 -7 -159 11 -263 66 -377 110
-228 285 -363 544 -418 149 -32 307 -12 447 57 182 88 322 283 332 463 l3 50
-275 5 -275 5 -3 70 c-2 38 0 80 3 92 l5 23 386 0 c343 0 385 -2 391 -16 3 -9
1 -66 -6 -128 -27 -256 -101 -426 -250 -576 -109 -110 -223 -177 -374 -221
-92 -27 -300 -37 -401 -20 -434 74 -741 386 -805 818 -73 487 242 962 713
1078 137 33 242 40 367 24z m5006 -19 c88 -23 222 -84 289 -132 l44 -31 0
-124 c0 -68 -2 -123 -5 -123 -3 0 -37 26 -75 59 -80 67 -173 119 -275 153 -62
20 -88 23 -220 22 -135 -1 -157 -3 -223 -27 -211 -74 -391 -251 -464 -453 -35
-100 -47 -174 -48 -300 0 -181 33 -296 126 -434 167 -250 498 -381 780 -310
107 27 245 97 324 164 36 31 68 56 73 56 4 0 7 -54 7 -119 l0 -119 -31 -26
c-59 -50 -209 -115 -324 -141 -594 -134 -1142 282 -1172 890 -19 388 181 745
509 911 211 106 471 138 685 84z m-9922 -25 c234 -38 418 -141 566 -318 85
-101 144 -221 185 -377 25 -95 25 -348 0 -450 -44 -176 -126 -318 -254 -442
-225 -218 -416 -274 -907 -266 l-200 3 -3 933 -2 932 262 0 c183 0 290 -5 353
-15z m2403 -917 l-3 -933 -100 0 -100 0 -3 933 -2 932 105 0 105 0 -2 -932z
m4900 0 l-3 -933 -100 0 -100 0 -3 933 -2 932 105 0 105 0 -2 -932z m4584 555
l3 -378 475 0 475 0 3 378 2 378 103 -3 102 -3 0 -930 0 -930 -100 0 -100 0
-5 455 -5 455 -475 0 -475 0 -3 -458 -2 -458 -103 3 c-56 2 -101 6 -99 11 1 4
2 423 2 932 l0 925 100 0 100 0 2 -377z m2896 -555 l-3 -933 -100 0 -100 0 -3
933 -2 932 105 0 105 0 -2 -932z m2117 912 c132 -32 266 -130 323 -238 42 -78
64 -178 63 -282 -2 -237 -113 -393 -340 -478 -58 -22 -88 -26 -246 -31 l-180
-6 -3 -408 -2 -408 -100 3 -100 3 0 928 c0 510 0 930 0 933 0 11 533 -4 585
-16z"/>
<path d="M4152 17858 l3 -743 151 1 c161 2 275 19 367 55 185 73 335 233 404
431 35 100 44 316 18 434 -52 243 -212 423 -455 513 -92 34 -213 51 -356 51
l-134 0 2 -742z"/>
<path d="M21077 18593 c-4 -3 -7 -154 -7 -336 l0 -329 153 4 c130 3 161 7 212
28 77 30 155 106 178 174 20 58 23 206 5 257 -32 96 -124 169 -244 194 -69 15
-285 21 -297 8z"/>
<path d="M870 13425 l0 -1365 11930 0 11930 0 0 1365 0 1365 -11930 0 -11930
0 0 -1365z m1311 168 c172 -381 317 -693 322 -693 4 0 23 33 41 73 18 39 76
164 129 277 52 113 109 237 127 275 18 39 51 111 74 160 24 50 112 240 196
423 91 197 157 329 163 323 5 -5 13 -37 17 -72 19 -136 30 -210 55 -379 15
-96 37 -249 51 -340 54 -372 76 -518 85 -575 5 -33 14 -91 19 -130 5 -38 21
-146 35 -240 13 -93 25 -178 25 -187 0 -16 -12 -18 -105 -18 -58 0 -105 2
-105 3 0 4 -44 328 -60 447 -22 155 -41 300 -50 365 -24 188 -60 449 -64 452
-7 8 -27 -32 -138 -272 -64 -137 -127 -275 -141 -305 -87 -186 -294 -636 -320
-692 -16 -38 -33 -68 -36 -68 -7 0 -35 60 -379 817 -130 288 -240 523 -244
523 -7 0 -15 -46 -54 -325 -8 -60 -19 -137 -24 -170 -10 -71 -23 -158 -45
-315 -9 -63 -20 -142 -25 -175 -5 -33 -13 -96 -19 -140 -6 -44 -14 -95 -17
-112 l-5 -33 -106 0 -106 0 7 53 c4 28 18 122 32 207 13 85 31 198 39 250 24
151 35 221 45 280 5 30 21 129 35 220 14 91 30 192 35 225 6 33 33 203 60 378
27 175 53 324 57 330 3 6 23 -25 43 -69 20 -43 178 -391 351 -771z m3625 462
c86 -198 163 -380 173 -405 10 -25 125 -292 255 -593 130 -302 236 -553 236
-558 0 -5 -51 -9 -113 -9 l-112 0 -25 63 c-14 34 -62 152 -106 262 l-82 200
-395 3 c-308 2 -397 -1 -404 -10 -6 -7 -56 -125 -113 -261 -57 -137 -109 -251
-115 -253 -6 -3 -59 -3 -117 -2 l-105 3 141 320 c78 176 179 406 225 510 102
233 193 440 346 785 64 146 121 275 126 288 5 13 14 22 20 20 6 -2 80 -165
165 -363z m13696 94 c139 -147 424 -445 633 -664 209 -218 415 -434 458 -481
44 -46 83 -81 88 -78 5 3 9 302 9 715 l0 709 100 0 100 0 0 -965 c0 -531 -2
-965 -5 -965 -8 0 -226 225 -621 641 -181 191 -439 462 -574 603 l-245 257 -3
-715 -2 -716 -105 0 -105 0 0 966 c0 587 4 964 9 962 5 -1 123 -123 263 -269z
m3952 225 c219 -38 350 -107 514 -270 60 -60 102 -110 102 -121 0 -12 -28 -45
-72 -83 l-72 -62 -30 38 c-61 80 -183 191 -252 230 -91 52 -147 71 -256 86
-138 18 -320 -12 -443 -74 -276 -141 -433 -430 -411 -760 26 -383 286 -658
674 -709 211 -28 415 43 560 196 93 98 162 247 162 352 l0 33 -275 0 -275 0 0
95 0 95 392 0 391 0 -7 -112 c-15 -255 -102 -458 -265 -618 -423 -414 -1192
-270 -1469 276 -81 159 -120 370 -101 546 42 396 282 702 646 824 156 53 328
66 487 38z m-15074 -53 c105 -32 163 -66 228 -136 95 -102 132 -199 132 -349
0 -48 -7 -116 -16 -150 -48 -185 -190 -323 -369 -357 -33 -7 -63 -15 -67 -18
-7 -6 37 -69 384 -553 96 -134 178 -249 182 -255 6 -10 -21 -13 -118 -13
l-125 0 -26 38 c-171 242 -223 317 -261 372 -25 36 -83 119 -130 185 -46 66
-98 142 -116 168 -26 39 -37 47 -57 45 l-26 -3 -3 -402 -2 -403 -105 0 -105 0
0 931 0 931 263 -4 c235 -4 270 -7 337 -27z m2060 -361 c0 -214 3 -390 8 -390
4 0 183 176 397 390 l390 390 140 0 140 -1 -434 -428 c-402 -397 -434 -431
-420 -448 8 -10 51 -58 95 -108 45 -49 169 -187 275 -305 106 -118 229 -255
274 -305 45 -49 116 -129 159 -177 l77 -88 -143 0 -143 0 -25 29 c-31 36 -211
242 -493 566 -120 138 -224 254 -232 260 -10 7 -21 3 -40 -15 l-25 -23 0 -409
0 -408 -105 0 -105 0 0 930 0 930 105 0 105 0 0 -390z m3398 298 l-3 -93 -377
-3 -378 -2 0 -275 0 -275 368 -2 367 -3 0 -90 0 -90 -367 -3 -368 -2 0 -370 0
-370 378 -2 377 -3 3 -92 3 -93 -486 0 -485 0 0 930 0 930 485 0 486 0 -3 -92z
m2340 9 c2 -50 -1 -84 -9 -93 -9 -11 -55 -14 -230 -14 l-219 0 0 -835 0 -835
-105 0 -105 0 0 835 0 835 -222 2 -223 3 -3 93 -3 92 558 -2 558 -3 3 -78z
m1532 -847 l0 -930 -105 0 -105 0 0 930 0 930 105 0 105 0 0 -930z"/>
<path d="M5612 13901 c-6 -16 -37 -91 -71 -167 -156 -361 -218 -510 -214 -516
7 -12 601 -10 608 2 3 5 -14 56 -38 112 -24 57 -68 159 -97 228 -28 69 -71
170 -95 225 -23 55 -46 110 -50 123 -9 31 -31 28 -43 -7z"/>
<path d="M7990 13826 l0 -336 108 0 c286 0 432 114 432 339 0 111 -21 173 -79
231 -73 73 -133 92 -313 98 l-148 4 0 -336z"/>
<path d="M360 8985 l0 -1365 12445 0 12445 0 0 1365 0 1365 -12445 0 -12445 0
0 -1365z m13963 931 c378 -113 641 -419 688 -799 61 -492 -214 -919 -686
-1063 -84 -26 -103 -28 -270 -28 -215 -1 -291 15 -450 94 -240 119 -411 322
-491 586 -26 84 -28 100 -28 279 0 178 2 196 27 278 81 263 247 463 484 581
174 87 268 107 478 102 138 -3 172 -7 248 -30z m9952 20 c71 -19 142 -57 198
-107 50 -43 127 -140 127 -158 0 -6 -35 -34 -77 -62 l-77 -52 -20 29 c-50 70
-131 139 -185 157 -176 56 -371 -24 -415 -172 -35 -119 -13 -207 69 -279 50
-44 103 -72 320 -167 175 -78 259 -128 326 -195 67 -66 105 -137 125 -229 18
-85 18 -143 -1 -232 -47 -222 -200 -379 -425 -435 -88 -22 -278 -15 -370 15
-119 38 -228 134 -293 259 -37 71 -74 178 -65 187 5 5 176 55 189 55 4 0 12
-21 18 -46 25 -98 94 -199 166 -244 132 -82 366 -59 470 45 71 70 109 178 103
290 -9 154 -62 214 -288 323 -378 180 -357 169 -434 245 -92 91 -123 153 -132
262 -19 243 114 436 349 505 76 23 249 26 322 6z m-22647 -31 c221 -35 377
-113 525 -261 83 -83 114 -126 168 -235 65 -130 89 -244 89 -424 0 -164 -17
-260 -66 -377 -78 -188 -277 -393 -458 -473 -150 -66 -284 -85 -606 -85 l-250
0 0 935 0 935 250 0 c176 0 279 -5 348 -15z m3180 -82 l3 -93 -381 0 -380 0 0
-275 0 -275 354 0 c195 0 361 -3 370 -6 23 -9 23 -179 0 -188 -9 -3 -175 -6
-370 -6 l-354 0 0 -370 0 -370 380 0 381 0 -3 -92 -3 -93 -482 -3 -483 -2 0
935 0 935 483 -2 482 -3 3 -92z m1489 -48 c70 -187 123 -329 238 -640 53 -143
125 -336 160 -430 35 -93 69 -170 75 -170 10 0 61 130 234 600 152 412 280
753 287 768 8 15 25 17 119 17 66 0 110 -4 110 -10 0 -5 -68 -187 -151 -402
-160 -416 -439 -1145 -532 -1388 -30 -80 -61 -145 -67 -145 -7 0 -39 70 -71
155 -32 85 -67 178 -78 205 -18 46 -149 386 -475 1238 -69 181 -126 333 -126
338 0 6 45 9 112 7 l113 -3 52 -140z m3503 50 l0 -95 -377 -2 -378 -3 -3 -272
-2 -273 354 0 c195 0 361 -3 370 -6 23 -9 23 -179 0 -188 -9 -3 -175 -6 -370
-6 l-354 0 2 -367 3 -368 378 -3 377 -2 0 -95 0 -95 -482 2 -483 3 -3 920 c-1
506 0 926 3 933 3 9 110 12 485 12 l480 0 0 -95z m1637 -745 l3 -835 255 -3
256 -2 -3 -93 -3 -92 -357 -3 -358 -2 0 935 0 936 103 -3 102 -3 2 -835z
m5541 824 c127 -20 217 -63 295 -140 75 -74 102 -122 127 -219 51 -200 7 -398
-117 -522 -112 -112 -273 -163 -515 -163 l-118 0 0 -405 0 -406 -102 3 -103 3
-3 920 c-1 506 0 926 3 933 7 19 407 16 533 -4z m2752 -79 l0 -95 -377 -2
-378 -3 -3 -272 -2 -273 367 -2 368 -3 0 -95 0 -95 -368 -3 -367 -2 2 -368 3
-367 378 -3 377 -2 0 -95 0 -95 -482 2 -483 3 -3 910 c-1 501 0 920 3 933 l5
22 480 0 480 0 0 -95z m1951 75 c172 -34 270 -93 350 -211 60 -89 79 -159 79
-293 0 -126 -17 -194 -75 -292 -60 -102 -183 -185 -317 -215 -32 -7 -58 -16
-58 -21 0 -5 128 -188 285 -407 157 -218 285 -401 285 -404 0 -4 -54 -7 -119
-7 -90 0 -123 4 -133 14 -7 8 -96 134 -198 280 -353 508 -359 516 -385 516
l-25 0 -2 -402 -3 -403 -102 -3 -103 -3 0 936 0 935 209 0 c169 0 228 -4 312
-20z"/>
<path d="M13872 9741 c-209 -52 -400 -204 -494 -393 -67 -137 -82 -204 -82
-368 1 -134 3 -152 31 -238 43 -130 101 -222 198 -318 139 -137 327 -214 519
-214 347 0 641 228 736 572 28 100 28 293 1 400 -34 131 -117 275 -214 369
-178 173 -455 249 -695 190z"/>
<path d="M1240 9720 c0 -5 0 -340 0 -742 l0 -733 97 -3 c348 -12 590 91 742
316 86 128 121 249 121 422 0 224 -63 385 -204 525 -120 119 -250 182 -436
210 -110 17 -320 20 -320 5z"/>
<path d="M16657 9723 c-4 -3 -7 -154 -7 -334 l0 -327 23 -6 c34 -9 154 -7 231
4 98 15 178 53 231 112 57 64 75 119 75 233 0 78 -4 99 -26 143 -47 95 -140
153 -277 171 -87 12 -240 15 -250 4z"/>
<path d="M21370 9396 c0 -378 -8 -346 88 -346 209 1 354 68 416 192 23 45 26
65 26 148 0 126 -17 175 -81 235 -27 25 -69 54 -93 65 -55 23 -171 40 -277 40
l-79 0 0 -334z"/>
</g>
</svg>
