<?xml version="1.0" standalone="no"?>
<!DOCTYPE svg PUBLIC "-//W3C//DTD SVG 20010904//EN"
 "http://www.w3.org/TR/2001/REC-SVG-20010904/DTD/svg10.dtd">
<svg version="1.0" xmlns="http://www.w3.org/2000/svg"
 width="1080.000000pt" height="1080.000000pt" viewBox="0 0 1080.000000 1080.000000"
 preserveAspectRatio="xMidYMid meet">
<metadata>
Created by potrace 1.16, written by Peter Selinger 2001-2019
</metadata>
<g transform="translate(0.000000,1080.000000) scale(0.100000,-0.100000)"
fill="#000000" stroke="none">
<path d="M3218 6480 c-73 -13 -176 -49 -243 -86 -58 -32 -183 -144 -187 -168
-1 -6 -4 21 -7 59 l-6 70 -47 3 -47 3 -3 47 -3 47 -445 0 -445 0 -5 -185 c-3
-102 -7 -179 -8 -173 -1 7 -53 64 -115 127 -128 128 -196 169 -347 209 -83 22
-97 22 -640 22 l-555 0 -3 -197 -2 -196 50 -7 50 -7 0 -39 c0 -33 4 -41 25
-49 l26 -10 -1 -209 c-1 -150 -5 -214 -14 -226 -8 -11 -33 -19 -72 -24 l-59
-6 -3 -197 -2 -198 50 0 50 0 0 -50 0 -50 235 0 235 0 0 -435 0 -435 4555 0
4555 0 0 435 0 435 185 0 185 0 0 200 0 200 -50 0 -50 0 0 40 0 40 143 0 c209
0 315 30 396 113 34 34 92 132 90 152 0 3 2 22 5 43 20 129 12 237 -25 337
-17 46 -41 78 -113 152 -99 103 -144 134 -239 167 l-62 21 -1857 3 -1858 3 0
-51 c0 -46 -2 -50 -24 -50 -23 0 -25 5 -28 48 l-3 47 -187 3 c-163 2 -188 0
-188 -13 0 -19 2 -19 -46 4 -54 26 -142 41 -245 41 -156 0 -302 -40 -413 -114
-49 -32 -138 -121 -163 -161 -10 -17 -12 -6 -12 63 l-1 82 -50 0 -50 0 0 50 0
50 -445 0 -445 0 0 -200 0 -199 50 -7 50 -7 0 -43 c0 -37 3 -44 20 -44 19 0
20 -7 20 -214 0 -118 -3 -221 -6 -230 -17 -44 -24 -2 -24 139 l0 155 -50 0
-50 0 0 50 0 50 -40 0 -40 0 -2 223 -3 222 -47 3 c-47 3 -48 4 -48 37 0 67 7
65 -196 65 -178 0 -184 -1 -184 -20 0 -20 -1 -20 -31 -5 -64 34 -179 55 -288
54 -58 -1 -127 -5 -153 -9z m342 -46 c30 -9 76 -27 102 -40 63 -32 62 -32 68
2 l5 29 134 3 c74 1 138 -1 142 -5 5 -5 9 -114 9 -243 l1 -235 -155 -3 c-148
-2 -156 -1 -156 16 0 35 -30 106 -57 134 -39 41 -103 62 -164 55 -141 -17
-199 -131 -199 -387 0 -259 47 -350 183 -357 103 -6 140 30 118 113 -12 44
-35 60 -96 66 l-30 3 0 145 0 145 373 3 373 2 -3 -147 -3 -148 -48 -7 c-87
-12 -87 -12 -87 -243 0 -176 -2 -204 -16 -209 -9 -3 -69 -6 -134 -6 -126 0
-133 3 -145 53 -4 15 -9 27 -11 27 -2 0 -28 -13 -57 -29 -128 -72 -252 -96
-412 -80 -404 41 -622 305 -602 729 16 337 208 565 525 625 95 18 265 13 342
-11z m2393 11 c38 -8 95 -28 128 -44 52 -26 59 -27 59 -11 0 35 23 41 161 38
l134 -3 3 -242 2 -243 -154 0 -154 0 -7 47 c-14 92 -63 147 -141 159 -97 14
-168 -37 -201 -144 -25 -82 -25 -372 0 -454 30 -100 89 -148 181 -148 107 0
176 67 192 189 l7 51 153 0 154 0 0 -48 c0 -26 -7 -75 -15 -107 -72 -280 -330
-427 -688 -394 -305 29 -511 194 -584 469 -24 91 -24 329 0 420 23 87 87 214
137 272 138 159 407 241 633 193z m-4678 -38 c238 -57 400 -215 451 -443 26
-118 16 -354 -18 -452 -60 -168 -186 -293 -347 -343 -142 -44 -229 -49 -733
-47 l-473 3 -3 159 c-3 174 -2 176 54 176 17 0 43 9 58 21 l26 20 0 269 c0
309 1 306 -85 318 l-50 7 -3 159 c-2 121 1 162 10 168 7 5 245 7 528 5 436 -3
526 -6 585 -20z m1343 15 c9 -7 12 -47 10 -168 l-3 -159 -25 -3 c-55 -7 -91
-24 -101 -49 -5 -13 -9 -138 -9 -276 0 -284 2 -291 68 -302 79 -14 73 2 70
-178 l-3 -162 -400 0 -400 0 -3 159 c-3 174 -2 176 54 176 17 0 43 9 58 21
l26 20 0 269 c0 309 1 306 -85 318 l-50 7 -3 159 c-2 121 1 161 10 168 7 4
184 8 393 8 209 0 386 -4 393 -8z m2460 0 c9 -7 12 -47 10 -168 l-3 -159 -48
-7 c-90 -12 -87 -3 -87 -314 l0 -273 26 -20 c15 -12 39 -21 55 -21 60 0 59 2
59 -170 0 -135 -2 -159 -16 -164 -20 -8 -768 -8 -788 0 -14 5 -16 29 -16 159
0 110 3 155 13 162 6 6 32 13 57 16 80 10 80 11 80 308 0 253 0 258 -23 284
-15 18 -36 28 -67 32 -25 3 -48 11 -52 17 -13 19 -9 301 4 314 14 14 774 17
796 4z m2270 0 c9 -7 12 -47 10 -167 l-3 -158 -45 -11 c-59 -14 -71 -39 -68
-136 l3 -75 148 -3 147 -3 0 85 c0 98 -13 121 -75 134 l-40 8 -3 159 c-2 120
1 160 10 167 7 4 180 8 383 8 204 0 376 -4 383 -8 9 -7 12 -47 10 -168 l-3
-159 -49 -7 c-91 -13 -91 -12 -94 -291 -2 -152 0 -255 7 -278 11 -38 42 -59
86 -59 55 0 55 0 55 -170 0 -135 -2 -159 -16 -164 -9 -3 -179 -6 -379 -6 -200
0 -370 3 -379 6 -14 5 -16 29 -16 164 0 168 0 170 51 170 11 0 31 11 44 25 23
22 25 32 25 120 l0 96 -147 -3 -148 -3 -3 -81 c-4 -119 9 -141 91 -159 l27 -6
-2 -162 -3 -162 -370 -3 c-203 -1 -380 0 -392 3 -23 5 -23 8 -23 164 0 171 0
171 55 171 38 0 73 20 85 50 7 18 10 109 8 278 -3 289 -3 287 -94 300 l-49 7
-3 159 c-2 121 1 161 10 168 7 4 180 8 383 8 204 0 376 -4 383 -8z m1730 -4
c13 -13 17 -295 4 -314 -4 -6 -27 -14 -52 -17 -32 -4 -52 -14 -68 -32 -23 -27
-23 -28 -20 -291 3 -297 2 -291 79 -301 24 -3 50 -10 57 -16 17 -13 17 -298 0
-315 -9 -9 -110 -12 -394 -12 -210 0 -389 3 -398 6 -14 5 -16 29 -16 164 0
172 -1 170 60 170 16 0 41 11 57 24 l28 24 0 266 c0 256 -1 266 -21 286 -12
13 -41 24 -70 28 l-49 7 -3 159 c-2 121 1 161 10 168 22 13 782 10 796 -4z
m1231 -22 c75 -25 92 -35 147 -90 83 -83 99 -133 99 -306 0 -151 -16 -207 -80
-278 -84 -93 -193 -122 -467 -122 l-188 0 0 -44 c0 -72 27 -95 123 -103 l77
-6 0 -158 c0 -156 0 -159 -22 -164 -13 -3 -207 -4 -433 -3 l-410 3 -3 159 c-3
174 -2 176 54 176 17 0 43 9 58 21 l26 20 0 269 c0 309 1 306 -85 318 l-50 7
-3 159 c-2 121 1 162 10 168 7 5 249 7 538 5 l525 -3 84 -28z m-8446 -346 c13
0 17 -9 17 -40 0 -34 4 -42 25 -50 l26 -10 -1 -207 c-1 -114 -6 -215 -10 -224
-5 -9 -18 -19 -28 -21 -17 -5 -18 -1 -11 36 5 22 7 100 4 171 -4 134 -19 208
-64 310 l-21 47 23 -6 c12 -3 30 -6 40 -6z m4777 -45 c0 -38 3 -45 20 -45 19
0 20 -7 20 -219 0 -216 0 -220 -22 -235 -35 -25 -46 -20 -44 22 l1 37 -53 3
-54 3 4 47 3 47 -196 3 -196 2 -6 -62 c-9 -109 -60 -171 -141 -172 -39 -1 -41
1 -54 39 -16 44 -22 264 -10 355 13 104 52 164 113 176 55 10 65 1 65 -56 l0
-50 50 0 50 0 0 -50 0 -50 194 0 c168 0 195 2 200 16 3 9 6 65 6 125 l0 109
25 0 c23 0 25 -4 25 -45z m-2976 -11 c3 -9 6 -31 6 -50 l0 -34 -100 0 c-99 0
-100 0 -90 21 29 52 72 76 141 78 25 1 39 -4 43 -15z m4716 -253 c0 -258 3
-251 -107 -251 l-63 0 0 219 c0 164 3 221 13 229 12 10 52 17 125 20 l32 2 0
-219z m877 3 c1 -163 -1 -216 -11 -230 -11 -14 -31 -19 -85 -22 l-71 -4 0 220
c0 165 3 222 13 230 13 11 72 20 122 18 l30 -1 2 -211z m-6597 167 c-27 -147
0 -358 64 -503 7 -15 3 -18 -17 -18 -24 0 -26 4 -29 48 -3 40 -6 47 -25 50
l-23 3 0 211 c0 183 2 214 17 230 9 10 17 18 18 18 1 0 -1 -18 -5 -39z m2476
30 c-11 -17 -14 -227 -5 -300 8 -63 34 -155 64 -233 6 -15 1 -18 -29 -18 l-36
0 0 50 c0 43 -3 50 -20 50 -19 0 -20 7 -20 218 0 221 3 242 38 242 7 0 11 -4
8 -9z m-3816 -1136 l26 -79 25 79 25 80 114 0 115 0 3 -46 c3 -40 0 -47 -18
-52 -18 -5 -20 -13 -20 -86 0 -75 2 -81 21 -81 18 0 20 -5 17 -47 l-3 -48
-105 0 -105 0 -3 48 c-2 37 0 47 12 47 13 0 16 12 15 63 l-1 62 -35 -105 c-20
-58 -41 -108 -47 -112 -15 -10 -68 -10 -84 0 -7 5 -28 53 -46 108 l-34 99 -1
-57 c-1 -46 2 -58 15 -58 12 0 14 -10 12 -47 l-3 -48 -75 0 -75 0 -3 46 c-3
40 0 47 18 52 18 5 20 13 20 82 0 68 -2 77 -20 82 -16 4 -20 14 -20 47 0 24 3
46 7 50 4 3 56 5 117 4 l109 -3 27 -80z m1200 -20 c0 -58 3 -105 8 -105 4 0
14 5 22 11 11 8 12 12 3 16 -8 2 -13 22 -13 44 l0 39 95 0 95 0 0 -39 c0 -36
-2 -39 -35 -45 -19 -4 -35 -10 -35 -14 0 -12 62 -68 83 -75 14 -6 18 -16 15
-49 l-3 -43 -105 0 -105 0 -3 48 c-3 39 0 47 14 47 14 0 15 3 7 11 -24 24 -42
2 -45 -53 l-3 -53 -80 0 -80 0 -3 48 c-2 37 0 47 12 47 13 0 16 15 16 85 0 69
-3 85 -15 85 -11 0 -15 11 -15 43 0 24 3 47 7 50 3 4 42 7 85 7 l78 0 0 -105z
m775 55 c0 -45 0 -45 38 -48 l38 -3 -3 -42 c-3 -41 -4 -42 -40 -45 -37 -3 -38
-5 -38 -41 0 -46 24 -84 40 -61 5 8 10 27 10 43 0 17 5 27 15 27 19 0 20 -74
2 -110 -19 -38 -83 -57 -137 -41 -53 16 -75 61 -67 133 5 43 4 48 -13 48 -17
0 -20 7 -20 44 0 39 3 45 26 50 18 5 31 20 45 52 20 44 21 45 62 42 l42 -3 0
-45z m2413 -87 c2 -111 5 -133 18 -133 12 0 14 -10 12 -47 l-3 -48 -71 -3
c-52 -2 -76 1 -86 11 -12 12 -17 13 -33 1 -25 -19 -105 -18 -133 2 -53 37 -70
149 -33 210 30 49 105 66 174 39 9 -4 17 -3 17 3 0 5 -9 12 -20 15 -15 4 -20
14 -20 39 0 19 3 38 7 42 4 4 43 5 88 4 l80 -3 3 -132z m562 111 c116 -67 116
-251 0 -318 -31 -19 -52 -21 -195 -21 l-160 0 -3 46 c-3 40 0 47 18 52 18 5
20 13 20 82 0 68 -2 77 -20 82 -16 4 -20 14 -20 47 0 24 3 46 8 50 4 5 77 6
163 4 131 -4 161 -8 189 -24z m1338 -106 c2 -116 4 -129 23 -138 16 -9 19 -19
17 -53 l-3 -42 -100 0 -100 0 -3 48 c-2 37 0 47 12 47 23 0 23 158 1 166 -11
4 -15 21 -15 55 l0 50 83 -3 82 -3 3 -127z m-5732 41 c67 -17 84 -45 84 -140
0 -46 4 -79 10 -79 6 0 10 14 10 31 0 24 4 30 17 27 24 -4 19 -76 -7 -102 -24
-24 -98 -26 -132 -4 -20 13 -27 14 -42 3 -30 -23 -90 -28 -129 -12 -27 12 -37
23 -42 48 -6 28 -4 36 19 56 15 13 34 23 42 23 21 0 17 14 -8 25 -32 14 -37
68 -9 92 23 20 83 41 119 42 13 1 43 -4 68 -10z m437 -21 c53 -63 -33 -147
-95 -91 -17 15 -18 14 -18 -21 0 -30 4 -39 20 -43 18 -5 21 -12 18 -52 l-3
-46 -100 0 -100 0 -3 48 c-2 37 0 47 12 47 12 0 16 10 16 40 0 29 -4 40 -15
40 -11 0 -15 12 -15 45 l0 45 75 0 c65 0 75 -2 75 -17 1 -17 1 -17 11 0 24 41
89 43 122 5z m717 7 c39 -20 70 -70 70 -112 l0 -33 -95 0 c-100 0 -115 -8 -79
-44 22 -22 41 -20 68 9 18 19 33 25 65 25 46 0 47 0 26 -44 -23 -48 -66 -69
-144 -69 -116 -1 -171 46 -171 144 0 51 4 63 30 93 17 19 47 39 68 45 47 13
122 7 162 -14z m895 11 c43 -18 55 -42 55 -110 0 -46 4 -57 21 -66 16 -9 20
-19 17 -53 l-3 -42 -85 0 -85 0 -3 85 c-3 91 -11 111 -37 90 -22 -19 -19 -67
6 -80 16 -9 20 -19 17 -53 l-3 -42 -100 0 -100 0 -3 48 c-2 37 0 47 12 47 9 0
16 8 16 19 0 11 3 27 6 36 5 11 0 18 -15 22 -17 4 -21 13 -21 49 l0 44 75 0
c65 0 75 -2 75 -17 0 -15 2 -16 10 -3 10 15 63 38 93 39 10 1 33 -5 52 -13z
m345 2 c25 -6 66 -10 93 -9 l47 2 0 -41 c0 -33 -4 -43 -19 -47 -12 -3 -23 -17
-26 -34 -13 -60 -95 -97 -195 -87 -40 4 -53 -5 -24 -16 9 -3 50 -6 92 -6 53 0
88 -5 112 -18 31 -15 35 -21 35 -56 0 -30 -6 -43 -25 -58 -53 -39 -252 -47
-307 -12 -27 17 -30 46 -7 69 13 12 14 19 5 28 -18 18 -13 49 11 74 15 16 19
27 12 31 -18 12 -34 49 -34 80 0 42 34 80 88 96 58 18 84 19 142 4z m567 -10
c39 -19 53 -53 53 -136 0 -46 4 -71 10 -67 6 3 10 17 10 31 0 15 6 24 15 24
18 0 21 -60 5 -90 -21 -39 -113 -46 -152 -12 -16 14 -20 13 -39 -4 -14 -13
-36 -18 -74 -18 -69 0 -97 22 -93 73 2 29 9 39 35 51 38 17 41 26 13 33 -10 3
-22 17 -26 32 -9 36 22 76 72 92 46 15 131 10 171 -9z m416 9 c47 -20 57 -37
64 -111 4 -47 10 -66 20 -66 11 0 13 -12 11 -47 l-3 -48 -74 -3 c-41 -2 -78 1
-83 6 -5 5 -11 46 -13 91 -4 90 -6 97 -30 88 -21 -9 -21 -87 1 -87 12 0 14
-10 12 -47 l-3 -48 -100 0 -100 0 -3 42 c-3 34 1 44 17 53 28 14 28 65 1 80
-15 8 -20 21 -20 50 l0 40 75 0 c63 0 75 -3 75 -17 0 -15 1 -15 18 0 39 36 86
44 135 24z m1388 -13 c38 -19 60 -54 66 -104 l6 -40 -97 0 c-101 0 -116 -8
-80 -45 22 -22 57 -15 69 13 8 18 18 22 52 22 36 0 43 -3 43 -20 0 -37 -51
-81 -105 -91 -104 -19 -194 22 -215 100 -20 77 25 159 99 180 44 12 124 5 162
-15z m700 0 c38 -19 60 -54 66 -104 l6 -40 -97 0 c-89 0 -96 -1 -96 -20 0 -42
72 -50 85 -9 5 15 16 19 51 19 37 0 44 -3 44 -19 0 -37 -47 -79 -102 -91 -142
-30 -251 58 -219 177 13 47 53 88 101 102 43 12 123 5 161 -15z m566 11 c74
-22 103 -60 103 -134 0 -98 -55 -145 -170 -144 -119 0 -180 49 -180 144 0 66
32 109 95 131 63 21 88 22 152 3z m793 -14 c25 -13 40 -31 54 -63 29 -71 22
-78 -84 -78 -81 0 -90 -2 -90 -19 0 -44 72 -53 85 -11 5 16 15 20 51 20 37 0
44 -3 44 -19 0 -11 -11 -33 -25 -49 -50 -59 -198 -63 -258 -8 -32 30 -52 93
-43 140 18 97 158 143 266 87z m377 7 c18 -15 16 -83 -3 -102 -23 -24 -70 -20
-88 6 -15 22 -16 21 -16 -24 0 -38 4 -47 21 -51 17 -5 20 -12 17 -49 l-3 -43
-95 -3 c-52 -1 -101 2 -109 7 -18 12 -5 91 15 91 10 0 14 12 14 39 0 30 -4 40
-20 44 -16 4 -20 14 -20 46 l0 41 81 0 c73 0 80 -2 75 -17 -6 -14 -3 -14 16 3
13 12 30 24 38 27 19 7 61 -1 77 -15z m276 11 l48 2 -3 -48 c-3 -45 -5 -48
-32 -51 -18 -2 -36 4 -51 18 -13 12 -31 20 -40 18 -30 -6 -14 -23 36 -39 80
-26 110 -68 89 -123 -16 -43 -56 -55 -174 -54 l-106 1 0 49 c0 47 0 48 32 48
19 0 41 -9 54 -21 13 -12 30 -19 38 -16 29 12 16 26 -39 43 -62 20 -82 37 -91
80 -12 62 58 109 146 97 25 -3 67 -5 93 -4z m-994 -14 c70 -36 76 -179 10
-239 -29 -26 -37 -28 -95 -24 -56 3 -64 2 -64 -14 0 -10 7 -18 15 -18 11 0 15
-12 15 -45 l0 -45 -105 0 -105 0 0 45 c0 32 4 45 14 45 21 0 26 23 26 115 0
74 -2 86 -20 95 -15 8 -20 21 -20 50 l0 40 80 0 c64 0 80 -3 80 -15 0 -20 6
-19 30 5 24 24 97 27 139 5z m-4789 -80 c0 -70 3 -85 16 -85 12 0 14 -10 12
-47 l-3 -48 -100 0 -100 0 -3 48 c-2 36 0 47 11 47 9 0 17 12 19 28 5 37 0 52
-18 52 -10 0 -14 13 -14 45 l0 45 90 0 90 0 0 -85z m3350 46 c0 -22 -4 -43
-10 -46 -13 -8 -13 -27 1 -62 l11 -28 16 39 c11 29 13 41 4 44 -7 2 -12 23
-12 48 l0 44 70 0 70 0 0 -44 c0 -33 -4 -45 -18 -48 -11 -3 -28 -32 -46 -79
-16 -41 -33 -80 -39 -86 -10 -14 -124 -18 -143 -5 -6 4 -26 44 -44 90 -19 45
-40 82 -47 82 -9 0 -13 15 -13 45 l0 45 100 0 100 0 0 -39z"/>
<path d="M822 5773 l3 -318 80 3 c59 2 92 8 125 25 92 46 141 218 111 392 -28
158 -94 215 -254 215 l-67 0 2 -317z m265 160 c23 -29 29 -220 10 -301 -17
-65 -77 -132 -121 -132 -14 0 -16 26 -16 230 l0 230 58 -6 c32 -4 62 -13 69
-21z"/>
<path d="M9820 5956 l0 -136 76 0 c70 0 78 2 104 28 36 36 47 91 31 152 -19
71 -38 84 -131 88 l-80 4 0 -136z"/>
</g>
</svg>
